<svg id="svg" fill="#5324ff" stroke="#5324ff" width="200" height="200" version="1.1" viewBox="143 143 514 514" xmlns="http://www.w3.org/2000/svg" transform="matrix(1, 0, 0, 1, 0, 0)" stroke-width="0">
    <g id="IconSvg_bgCarrier" stroke-width="0"></g>
    <g id="IconSvg_tracerCarrier" stroke-linecap="round" stroke-linejoin="round" stroke="#CCCCCC" stroke-width="0">
      <defs xmlns="http://www.w3.org/2000/svg">
  <clipPath id="a">
   <path d="m148.09 148.09h503.81v503.81h-503.81z"></path>
  </clipPath>
 </defs>
<path xmlns="http://www.w3.org/2000/svg" d="m396.07 274.05c16.223-0.24609 32.324 2.8438 47.305 9.0664 12.691 5.1016 23.445 14.074 30.734 25.645 7.5625 11.945 10.645 26.184 8.6953 40.188-1.9453 14.004-8.793 26.863-19.328 36.293-6.7227 6.3555-13.914 12.199-21.512 17.48-5.4922 4.0312-10.883 8.2617-16.273 12.496-3.6016 3.1562-6.3438 7.1758-7.957 11.688-1.3789 3.3594-2.7188 6.582-4.0312 9.6719-1.3438 3.4766-3.7109 6.4648-6.7852 8.5703-3.0781 2.1016-6.7188 3.2266-10.445 3.2188-4.9258 0.58203-9.9023-0.48047-14.156-3.0234-3.4805-2.168-6.3047-5.2383-8.1758-8.8828-1.8711-3.6484-2.7227-7.7305-2.457-11.82 0.27734-10.117 4.3203-19.766 11.336-27.055 8.1562-8.3477 17.023-15.969 26.5-22.773 7.0664-5.1445 13.156-11.508 17.988-18.793 6.6016-10.984 4.5352-28.969-6.75-36.93h-0.003906c-4.0703-2.8555-8.7383-4.75-13.652-5.543-7.4961-1.3984-15.223-0.96875-22.52 1.2617-8.0039 2.8398-14.465 8.8828-17.836 16.676-2.9219 5.5938-5.4922 11.387-8.8164 16.727-2.5352 3.9375-6.2656 6.9609-10.645 8.6289-4.3789 1.668-9.1758 1.8945-13.688 0.64062-4.0781-0.66406-7.8633-2.5234-10.883-5.3398-4.0625-3.9492-6.2305-9.457-5.9453-15.113 0.13281-9.7422 3.1875-19.219 8.7656-27.207 9.3945-13.484 22.734-23.73 38.188-29.32 10.32-4.0312 21.27-6.2109 32.348-6.4492z"></path>
<path xmlns="http://www.w3.org/2000/svg" d="m420.55 498.7c0 15.051-12.203 27.254-27.258 27.254-15.051 0-27.254-12.203-27.254-27.254 0-15.055 12.203-27.258 27.254-27.258 15.055 0 27.258 12.203 27.258 27.258"></path>
<g xmlns="http://www.w3.org/2000/svg" clip-path="url(#a)">
  <path d="m400 198.48c53.445 0 104.7 21.23 142.5 59.023 37.793 37.793 59.027 89.051 59.027 142.5 0 53.445-21.234 104.7-59.027 142.5-37.793 37.793-89.051 59.027-142.5 59.027-53.449 0-104.71-21.234-142.5-59.027-37.793-37.793-59.023-89.051-59.023-142.5 0-53.449 21.23-104.71 59.023-142.5s89.051-59.023 142.5-59.023m0-50.383c-66.812 0-130.88 26.539-178.12 73.781s-73.781 111.31-73.781 178.12c0 66.809 26.539 130.88 73.781 178.12 47.242 47.242 111.31 73.781 178.12 73.781 66.809 0 130.88-26.539 178.12-73.781 47.242-47.242 73.781-111.31 73.781-178.12 0-66.812-26.539-130.88-73.781-178.12-47.242-47.242-111.31-73.781-178.12-73.781z"></path>
 </g>

      </g>
     <g id="IconSvg_iconCarrier">
      <defs xmlns="http://www.w3.org/2000/svg">
  <clipPath id="a">
   <path d="m148.09 148.09h503.81v503.81h-503.81z"></path>
  </clipPath>
 </defs>
<path xmlns="http://www.w3.org/2000/svg" d="m396.07 274.05c16.223-0.24609 32.324 2.8438 47.305 9.0664 12.691 5.1016 23.445 14.074 30.734 25.645 7.5625 11.945 10.645 26.184 8.6953 40.188-1.9453 14.004-8.793 26.863-19.328 36.293-6.7227 6.3555-13.914 12.199-21.512 17.48-5.4922 4.0312-10.883 8.2617-16.273 12.496-3.6016 3.1562-6.3438 7.1758-7.957 11.688-1.3789 3.3594-2.7188 6.582-4.0312 9.6719-1.3438 3.4766-3.7109 6.4648-6.7852 8.5703-3.0781 2.1016-6.7188 3.2266-10.445 3.2188-4.9258 0.58203-9.9023-0.48047-14.156-3.0234-3.4805-2.168-6.3047-5.2383-8.1758-8.8828-1.8711-3.6484-2.7227-7.7305-2.457-11.82 0.27734-10.117 4.3203-19.766 11.336-27.055 8.1562-8.3477 17.023-15.969 26.5-22.773 7.0664-5.1445 13.156-11.508 17.988-18.793 6.6016-10.984 4.5352-28.969-6.75-36.93h-0.003906c-4.0703-2.8555-8.7383-4.75-13.652-5.543-7.4961-1.3984-15.223-0.96875-22.52 1.2617-8.0039 2.8398-14.465 8.8828-17.836 16.676-2.9219 5.5938-5.4922 11.387-8.8164 16.727-2.5352 3.9375-6.2656 6.9609-10.645 8.6289-4.3789 1.668-9.1758 1.8945-13.688 0.64062-4.0781-0.66406-7.8633-2.5234-10.883-5.3398-4.0625-3.9492-6.2305-9.457-5.9453-15.113 0.13281-9.7422 3.1875-19.219 8.7656-27.207 9.3945-13.484 22.734-23.73 38.188-29.32 10.32-4.0312 21.27-6.2109 32.348-6.4492z"></path>
<path xmlns="http://www.w3.org/2000/svg" d="m420.55 498.7c0 15.051-12.203 27.254-27.258 27.254-15.051 0-27.254-12.203-27.254-27.254 0-15.055 12.203-27.258 27.254-27.258 15.055 0 27.258 12.203 27.258 27.258"></path>
<g xmlns="http://www.w3.org/2000/svg" clip-path="url(#a)">
  <path d="m400 198.48c53.445 0 104.7 21.23 142.5 59.023 37.793 37.793 59.027 89.051 59.027 142.5 0 53.445-21.234 104.7-59.027 142.5-37.793 37.793-89.051 59.027-142.5 59.027-53.449 0-104.71-21.234-142.5-59.027-37.793-37.793-59.023-89.051-59.023-142.5 0-53.449 21.23-104.71 59.023-142.5s89.051-59.023 142.5-59.023m0-50.383c-66.812 0-130.88 26.539-178.12 73.781s-73.781 111.31-73.781 178.12c0 66.809 26.539 130.88 73.781 178.12 47.242 47.242 111.31 73.781 178.12 73.781 66.809 0 130.88-26.539 178.12-73.781 47.242-47.242 73.781-111.31 73.781-178.12 0-66.812-26.539-130.88-73.781-178.12-47.242-47.242-111.31-73.781-178.12-73.781z"></path>
 </g>

      </g>
      </svg>